<?xml version="1.0" encoding="utf-8"?>
<!-- Generator: Adobe Illustrator 17.0.0, SVG Export Plug-In . SVG Version: 6.00 Build 0)  -->
<!DOCTYPE svg PUBLIC "-//W3C//DTD SVG 1.1//EN" "http://www.w3.org/Graphics/SVG/1.1/DTD/svg11.dtd">
<svg version="1.1" id="Layer_1" xmlns="http://www.w3.org/2000/svg" xmlns:xlink="http://www.w3.org/1999/xlink" x="0px" y="0px"
	 width="2000px" height="2000px" viewBox="0 0 2000 2000" enable-background="new 0 0 2000 2000" xml:space="preserve">
<rect fill="#FFFFFF" width="2000" height="2000"/>
<g transform="matrix(.569 0 0 .569 199.451 -82.735)">
	
		<linearGradient id="SVGID_1_" gradientUnits="userSpaceOnUse" x1="-15791.4033" y1="-11675.5811" x2="-15202.1748" y2="-12023.7471" gradientTransform="matrix(0.1187 0 0 0.1187 3123.5793 3501.3831)">
		<stop  offset="0" style="stop-color:#909CA9"/>
		<stop  offset="1" style="stop-color:#EDEDEE"/>
	</linearGradient>
	<path fill="url(#SVGID_1_)" d="M1972.131,1377.63l-340.04,111.035l-295.83,130.565l-82.763,21.849
		c-21.078,20.049-43.179,40.356-67.082,60.917c-26.216,22.616-50.633,43.181-69.398,58.085
		c-20.817,16.451-51.66,47.293-67.337,66.823c-23.39,29.3-41.895,60.399-49.863,84.305c-14.137,43.181-7.194,86.873,20.049,127.229
		c34.954,51.402,104.609,103.832,185.825,139.558c41.383,18.252,111.035,41.639,163.466,54.745
		c87.128,22.105,255.736,46.009,348.519,49.61c18.76,0.771,43.95,0.771,44.976,0c2.059-1.29,16.452-28.788,33.161-62.97
		c57.059-116.434,98.181-225.668,120.541-318.965c13.365-56.542,23.901-131.851,30.838-221.034
		c1.803-24.932,2.571-108.464,1.029-136.739c-2.315-46.263-6.427-83.786-12.848-120.541c-1.029-5.399-1.29-10.283-0.773-10.539
		c1.025-0.77,4.109-1.798,46.004-13.881l-8.478-20.044v-0.006h0.005L1972.131,1377.63z M1894.511,1423.126
		c3.084,0,11.306,78.904,13.361,128.769c0.517,10.537,0.256,17.476-0.256,17.476c-2.054,0-43.437-24.414-72.989-42.919
		c-25.704-16.194-74.536-48.58-82.246-54.748c-2.575-1.798-2.32-2.054,18.76-9.253
		C1806.863,1450.37,1891.684,1423.126,1894.511,1423.126z M1721.278,1480.186c2.315,0,8.222,3.338,22.359,12.079
		c52.945,33.155,124.914,73.253,155.756,86.619c9.508,4.112,10.533,2.567-11.309,17.477
		c-46.778,31.869-105.126,63.224-176.578,94.839c-12.592,5.655-23.128,10.022-23.384,10.022c-0.512,0,1.025-6.422,3.079-14.134
		c17.221-64.003,26.99-128.771,27.507-180.689c0.256-25.704,0.256-25.704,2.571-26.471
		C1720.761,1480.186,1721.017,1480.186,1721.278,1480.186L1721.278,1480.186z M1685.553,1493.807
		c1.537,1.54,0.512,59.115-1.546,74.792c-4.626,37.526-11.823,72.48-23.642,111.808c-2.828,9.503-5.402,17.476-5.911,17.988
		c-1.033,1.284-36.245-33.156-47.811-46.521c-20.049-23.133-35.724-46.265-47.29-68.881c-5.912-11.567-15.162-34.182-14.393-34.955
		C1549.073,1545.211,1684.524,1492.78,1685.553,1493.807L1685.553,1493.807z M1517.458,1559.86c0.256,0,0.512,0,0.773,0.256
		c0.512,0.514,2.315,4.628,3.857,9.253c8.222,22.362,26.724,55.26,42.664,76.337c17.477,23.133,40.354,47.805,59.369,63.997
		c6.172,5.14,11.823,10.022,12.592,10.795c1.545,1.543,2.059,1.284-39.838,17.221c-48.571,18.505-101.521,37.01-162.18,56.542
		c-14.49,4.672-28.967,9.384-43.43,14.137c-2.317,0.773-1.544-0.514,5.138-11.05c30.07-47.037,75.819-139.306,101.522-204.59
		c4.37-11.309,8.739-22.616,9.511-25.187c1.029-3.601,2.311-4.884,5.651-6.685C1514.887,1560.377,1516.689,1559.86,1517.458,1559.86
		L1517.458,1559.86z M1466.059,1581.193c0.769,0.517-12.339,28.015-25.191,53.203c-24.932,48.576-52.176,96.386-88.672,154.471
		c-6.168,10.022-12.077,19.278-12.85,20.305c-1.284,1.8-1.8,1.284-5.912-6.682c-8.739-17.221-15.938-39.327-19.792-59.632
		c-3.857-20.049-3.084-55.001,1.287-76.59c3.338-15.934,3.084-15.677,10.794-19.534
		C1358.621,1630.029,1465.03,1580.166,1466.059,1581.193L1466.059,1581.193z M1909.417,1599.187v10.794
		c0,57.316-6.168,135.964-15.167,193.282c-1.542,10.022-2.832,18.244-3.084,18.505c0,0-7.453-2.054-16.191-4.628
		c-38.552-12.081-80.447-29.815-118.231-50.63c-24.935-13.623-61.172-35.987-60.142-37.016c0.253-0.255,11.05-5.909,23.642-12.593
		c50.383-26.215,98.698-54.487,140.593-82.502c15.679-10.539,39.321-27.5,44.467-32.128L1909.417,1599.187L1909.417,1599.187z
		 M1272.004,1675.26c1.028,0,0.77,2.056-0.772,11.309c-1.029,6.685-2.312,19.021-2.823,27.5
		c-2.061,37.526,4.112,65.287,22.616,103.324c5.14,10.539,9.255,19.278,8.995,19.532c-1.8,1.544-171.945,51.409-225.409,66.057
		c-15.934,4.368-29.811,8.224-30.844,8.478c-1.796,0.517-2.054,0.261-1.284-4.113c5.911-37.779,34.698-87.128,74.792-128.767
		c26.731-27.757,48.065-43.948,84.562-64.77c26.216-14.904,66.568-37.262,69.652-38.293
		C1271.491,1675.26,1271.747,1675.26,1272.004,1675.26L1272.004,1675.26z M1672.958,1746.97c0.256-0.256,6.424,3.088,13.877,7.455
		c55.004,31.872,131.595,61.43,196.875,76.593l5.915,1.287l-8.227,4.621c-34.182,19.021-146.5,65.797-261.386,108.723
		c-16.709,6.166-33.156,12.337-36.245,13.62c-3.084,1.284-5.912,2.056-5.912,1.8c0-0.261,4.63-9.255,10.537-20.305
		c32.128-60.143,64.515-133.393,80.964-184.284C1671.416,1751.597,1672.697,1747.23,1672.958,1746.97L1672.958,1746.97z
		 M1632.091,1760.337c0.261,0.262-1.798,5.655-4.37,11.823c-22.359,54.231-51.664,113.35-89.187,179.659
		c-9.508,16.965-17.477,30.588-17.738,30.588c-0.253,0-7.966-4.629-17.218-10.283c-54.492-33.414-102.81-74.536-134.421-114.375
		l-4.628-5.655l23.387-6.426c83.79-22.872,154.982-47.546,225.666-77.874C1623.609,1763.68,1631.835,1760.337,1632.091,1760.337z
		 M1886.029,1849.009C1886.029,1849.009,1886.286,1849.266,1886.029,1849.009c0.256,5.912-12.853,58.859-23.649,97.151
		c-8.995,32.128-16.709,57.318-30.842,101.78c-6.168,19.538-11.562,35.726-11.823,35.726c-0.256,0-1.798-0.256-3.34-0.767
		c-76.334-13.884-144.702-33.159-208.958-58.859c-17.994-7.199-43.694-18.766-45.236-20.049c-0.512-0.519,14.91-7.711,34.443-16.194
		c116.944-51.147,238.258-109.235,279.893-134.162C1881.399,1850.55,1885.256,1849.009,1886.029,1849.009L1886.029,1849.009z
		 M1299.764,1869.058c0.514,0.512-32.128,47.549-77.88,111.546c-15.934,22.362-34.439,48.576-41.377,58.343
		c-6.941,9.767-17.477,25.189-23.389,34.443l-10.8,16.707l-11.567-9.766c-13.623-11.312-37.266-35.47-47.803-48.836
		c-22.106-27.498-37.01-56.542-42.922-83.013c-2.828-12.339-2.828-18.511-0.261-19.278c3.854-1.028,72.48-17.221,136.739-32.131
		c35.726-8.222,77.103-17.988,92.011-21.586C1287.425,1871.881,1299.508,1869.058,1299.764,1869.058L1299.764,1869.058z
		 M1332.661,1881.652l8.222,9.252c37.016,41.381,74.797,71.971,120.547,98.696c8.227,4.63,14.393,8.739,13.877,9
		c-1.794,1.284-158.839,57.052-231.574,82.241c-40.864,14.392-74.536,25.958-74.79,25.958c-0.256,0-2.571-1.54-5.145-3.34
		l-4.624-3.342l7.453-10.792c24.158-34.956,54.492-73.25,120.545-152.927L1332.661,1881.652L1332.661,1881.652z M1537.767,2028.409
		c0.252-0.255,11.562,3.854,25.44,9.001c33.417,12.592,59.886,20.557,95.358,29.555c43.694,11.053,106.92,21.848,144.19,24.931
		c5.655,0.512,8.739,1.029,7.71,1.801c-1.803,1.029-39.58,13.623-67.339,22.362c-44.211,13.876-179.145,53.714-289.149,85.33
		c-20.305,5.911-37.784,10.795-38.811,11.05c-2.567,0.517-11.052-1.8-11.052-2.828c0-0.511,6.168-8.478,13.623-17.218
		c37.008-44.209,73.766-93.555,104.352-140.333C1530.567,2039.203,1537.767,2028.666,1537.767,2028.409L1537.767,2028.409z
		 M1492.527,2029.697c0.256,0.256-17.99,29.555-49.858,79.93c-13.625,21.333-28.79,45.492-34.189,53.975
		c-5.14,8.224-12.85,21.078-17.218,28.272l-7.455,13.11l-3.854-1.029c-9.255-2.571-74.28-25.448-91.501-32.386
		c-21.334-8.483-43.437-18.761-59.888-27.5c-20.559-11.053-46.259-27.504-44.205-28.015c0.513-0.256,35.726-9.77,78.132-21.333
		c112.577-30.589,175.031-48.322,215.901-61.172C1485.847,2031.237,1492.271,2029.437,1492.527,2029.697L1492.527,2029.697z
		 M1812.519,2104.743h0.256c1.029,2.573-40.606,118.232-55.777,154.727c-3.336,8.224-4.618,10.284-6.42,10.022
		c-4.37-0.252-64.768-8.735-101.526-14.134c-63.995-9.766-171.432-28.532-198.417-34.698l-6.168-1.283l38.291-8.745
		c82.25-18.505,121.83-28.527,161.924-40.864c50.635-15.421,100.757-34.699,151.387-58.343
		C1804.036,2107.827,1810.719,2105,1812.519,2104.743L1812.519,2104.743z"/>
	
		<linearGradient id="SVGID_2_" gradientUnits="userSpaceOnUse" x1="-15768.1592" y1="-23207.9961" x2="-15294.0518" y2="-23207.9961" gradientTransform="matrix(0.1187 0 0 0.1187 3123.5793 3501.3831)">
		<stop  offset="0" style="stop-color:#939FAB"/>
		<stop  offset="1" style="stop-color:#DCDEE1"/>
	</linearGradient>
	<path fill="url(#SVGID_2_)" d="M1621.555,584.977c-5.655-0.767-96.9,32.131-155.756,56.031
		c-79.422,32.388-141.103,63.233-179.144,89.957c-14.134,10.028-31.872,27.76-34.695,34.698c-1.028,2.571-1.544,5.655-1.544,8.739
		l34.443,32.642l81.988,26.216l195.08,34.956l223.092,38.297l2.315-19.276c-0.769,0-1.286-0.256-2.05-0.256l-29.308-4.628
		l-5.907-10.537c-30.33-53.462-63.742-119.774-83.275-164.496c-15.162-34.698-29.557-74.79-37.526-103.578
		c-4.37-17.477-4.882-18.505-7.705-18.761v-0.006h-0.006L1621.555,584.977z M1617.438,598.089h0.264
		c0.252,0.254,1.281,7.455,2.311,15.932c4.365,35.988,12.339,70.681,24.931,108.207c9.508,28.273,9.508,26.733-1.542,23.389
		c-26.216-7.194-143.674-27.5-228.748-39.322c-13.623-1.8-25.189-3.598-25.189-3.854c-1.028-1.028,61.427-33.672,88.928-46.52
		C1513.605,639.725,1610.244,599.373,1617.438,598.089L1617.438,598.089z M1369.671,713.233l10.028,3.338
		c54.485,18.508,191.474,44.725,267.042,50.893c8.479,0.772,15.679,1.544,15.932,1.544c0.256,0.256-6.936,4.112-16.191,8.479
		c-36.493,18.249-76.59,40.61-104.349,57.832c-8.222,5.138-15.679,9.253-16.704,9.253c-1.029,0-6.424-1.029-12.079-1.8
		l-10.281-1.544l-25.699-25.19c-45.236-43.948-80.706-77.874-94.329-90.727L1369.671,713.233z M1359.394,721.199l36.239,45.237
		c19.788,24.931,39.837,49.347,44.21,54.742c4.365,5.401,7.966,9.772,7.71,10.028c-1.029,0.77-52.429-9.255-79.678-15.421
		c-28.015-6.427-39.58-9.511-56.801-14.906l-14.137-4.628v-3.601c0.256-17.221,22.105-42.922,59.115-69.135L1359.394,721.199
		L1359.394,721.199z M1667.303,782.885c1.03,0,2.311,2.312,5.395,9.252c8.739,19.275,35.988,71.196,42.664,81.218
		c2.062,3.345,5.655,3.601-30.581-2.311c-87.128-14.14-115.146-18.761-115.146-19.275c0-0.256,2.571-2.056,5.912-3.857
		c26.989-14.904,54.231-33.926,78.393-54.231c5.912-4.884,11.309-9.51,12.335-10.283
		C1666.53,782.885,1667.047,782.629,1667.303,782.885L1667.303,782.885z"/>
	
		<radialGradient id="SVGID_3_" cx="-8508.2539" cy="-7329.8423" r="629.4706" gradientTransform="matrix(-0.114 -0.0171 0.0346 -0.228 1034.3196 -618.2609)" gradientUnits="userSpaceOnUse">
		<stop  offset="0" style="stop-color:#EE352C"/>
		<stop  offset="1" style="stop-color:#A91D22"/>
	</radialGradient>
	<path fill="url(#SVGID_3_)" d="M1253.754,762.066c0,0-5.651,8.999-0.255,22.365c3.345,8.222,13.11,18.244,24.159,28.527
		c0,0,114.374,111.546,128.254,127.484c63.224,72.992,90.727,144.958,93.298,244.17c1.542,63.741-10.541,119.771-40.61,184.798
		c-53.461,116.688-166.295,245.457-340.297,388.361l25.449-8.483c16.448-12.339,38.81-25.443,91.241-54.231
		c121.055-66.315,257.277-127.229,424.342-189.941c240.565-90.474,636.126-196.369,861.271-230.805l23.393-3.601l-3.601-5.655
		c-20.558-31.872-34.698-51.66-51.664-72.736c-49.344-61.172-109.226-110.774-182.481-151.899
		c-100.752-56.285-231.066-100.235-396.069-132.878c-31.099-6.171-99.467-17.993-154.983-26.474
		c-117.717-18.244-193.795-30.841-277.582-45.234c-30.069-5.143-75.052-12.851-104.866-19.275
		c-15.421-3.345-44.976-10.283-68.108-18.25C1286.141,791.109,1259.409,783.913,1253.754,762.066L1253.754,762.066z
		 M1320.069,826.324c0.254-0.254,4.365,1.284,9.766,3.084c9.766,3.338,22.359,7.194,37.27,11.309
		c11.281,3.103,22.59,6.101,33.926,8.995c15.421,3.853,28.27,7.453,28.526,7.453c1.803,1.8,27.763,84.812,36.501,116.684
		c3.336,12.083,5.912,22.362,5.655,22.362c-0.264,0.261-3.088-4.112-6.427-10.022c-30.073-52.947-77.621-106.664-132.625-149.845
		C1325.468,831.207,1320.069,826.58,1320.069,826.324L1320.069,826.324z M1446.523,861.278c1.286,0,6.941,0.772,13.877,2.312
		c43.694,9.766,122.087,24.674,172.204,33.157c8.483,1.284,15.167,2.829,15.167,3.34c0,0.517-3.088,2.312-6.944,4.371
		c-8.478,4.368-42.664,24.67-53.97,32.383c-28.532,19.019-54.231,39.58-72.738,58.085c-7.453,7.455-13.881,13.623-13.881,13.623
		s-1.537-4.367-2.828-9.769c-9.247-35.726-28.527-88.674-46.004-125.939c-2.828-5.909-5.143-11.308-5.143-11.82
		C1446.262,861.534,1446.262,861.278,1446.523,861.278L1446.523,861.278z M1669.101,903.687c1.542,0.512,4.113,9.252,9.252,28.527
		c9.511,37.271,13.881,78.907,12.339,117.717c-0.517,10.795-1.029,20.817-1.545,22.106l-0.769,2.567l-13.365-4.368
		c-27.502-8.739-72.221-21.85-110.516-32.642c-21.851-5.912-39.58-11.309-39.58-11.823c0-1.544,31.872-33.414,45.492-45.492
		C1596.363,957.401,1666.787,902.914,1669.101,903.687L1669.101,903.687z M1686.836,906.254
		c0.773-0.767,106.408,17.477,154.471,26.731c35.729,6.938,87.645,17.734,90.727,19.022c1.542,0.512-3.857,3.596-21.078,11.306
		c-67.852,30.588-118.23,58.085-168.344,91.501c-13.109,8.739-24.162,15.934-24.418,15.934c-0.256,0-0.513-7.452-0.513-16.448
		c0-48.832-9.767-98.181-27.763-139.818C1688.12,910.369,1686.578,906.514,1686.836,906.254z M1960.048,960.231
		c0.773,0.77-2.571,21.591-5.655,33.926c-9.252,38.297-34.182,95.102-64.764,148.559c-5.402,9.51-10.284,17.221-10.802,17.477
		c-0.508,0.256-7.449-3.601-15.418-8.227c-29.813-17.477-63.739-33.926-100.752-49.349c-10.277-4.368-19.275-7.968-19.532-8.478
		c-1.803-1.544,80.96-56.29,124.654-82.506C1902.477,990.56,1959.019,959.201,1960.048,960.231L1960.048,960.231z M1979.58,963.314
		c2.315,0,49.093,12.853,73.506,20.049c60.402,17.993,129.796,43.436,175.032,63.997l18.76,8.485l-13.104,3.082
		c-110.516,25.443-205.101,54.748-296.346,91.757c-7.454,3.084-14.137,5.655-14.646,5.655c-0.517,0,2.054-5.911,5.395-13.11
		c27.502-58.343,45.236-119.257,49.601-171.178C1978.042,967.167,1978.807,963.314,1979.58,963.314L1979.58,963.314z
		 M1513.862,1070.236c0.769-0.773,36.496,7.711,55.773,13.104c29.3,8.228,91.497,29.044,91.497,30.588
		c0,0.256-6.937,6.168-15.159,13.367c-33.67,28.015-66.057,57.569-104.87,95.095c-11.567,11.056-21.33,20.05-21.842,20.05
		c-0.517,0-0.769-1.546-0.517-3.601c5.911-43.181,4.629-98.696-3.596-154.983
		C1514.374,1076.658,1513.605,1070.492,1513.862,1070.236z M2264.62,1071.009c0.509,0.511-16.452,27.241-27.246,42.404
		c-15.418,22.103-38.043,51.409-89.19,115.663c-26.981,33.923-57.315,72.223-67.335,85.073
		c-10.285,12.85-18.763,23.643-19.024,23.643c-0.256,0-3.593-4.624-7.193-10.277c-28.788-43.181-63.23-80.964-104.097-114.889
		c-7.71-6.427-16.188-13.367-19.016-15.423c-2.828-2.055-5.143-4.112-5.143-4.368c0-0.769,43.69-19.536,76.851-32.898
		c58.088-23.648,137.241-51.919,196.619-70.169C2230.947,1080.002,2264.103,1070.492,2264.62,1071.009L2264.62,1071.009z
		 M2284.408,1076.146c1.025-0.255,7.197,2.829,14.65,7.194c62.458,35.726,123.625,81.735,171.948,129.028
		c13.62,13.367,47.29,48.321,46.773,48.577c0,0-11.823,1.028-25.699,2.054c-108.206,8.228-246.737,31.099-379.876,63.226
		c-8.995,2.054-16.96,3.854-17.477,3.854c-0.509,0,9.511-10.022,22.108-22.101c78.132-75.307,113.861-122.855,156.008-207.674
		C2278.754,1087.713,2283.896,1076.918,2284.408,1076.146C2284.153,1076.146,2284.153,1076.146,2284.408,1076.146L2284.408,1076.146
		z M1712.023,1134.75c3.601,0.767,37.013,16.451,62.2,29.041c23.132,11.562,57.832,30.072,59.63,31.611
		c0.256,0.256-12.083,6.682-27.241,14.137c-48.324,24.159-89.702,47.032-132.885,73.249c-12.336,7.455-22.616,13.626-22.872,13.626
		c-1.029,0-0.773-1.034,6.168-13.626c23.133-42.148,41.636-92.524,52.177-141.617
		C1710.224,1137.317,1711.253,1134.75,1712.023,1134.75L1712.023,1134.75z M1678.609,1140.916
		c0.773,0.773-7.966,32.384-13.361,49.605c-10.541,32.642-28.275,73.507-45.492,104.35c-4.117,7.193-10.284,17.732-13.625,23.643
		l-6.424,10.281l-14.393-13.875c-16.704-16.194-30.33-26.217-47.804-35.215c-6.944-3.595-12.339-6.682-12.339-7.193
		c0-2.056,43.95-41.894,77.62-70.681C1626.949,1181.01,1677.84,1140.145,1678.609,1140.916L1678.609,1140.916z M1882.946,1224.963
		l12.595,8.222c28.779,18.766,62.705,43.694,88.67,65.54c14.646,12.077,42.917,37.526,48.576,43.694l3.079,3.345l-20.814,5.91
		c-117.717,32.639-208.702,61.682-314.853,100.752c-11.823,4.368-21.847,7.966-22.62,7.966c-1.537,0-2.827,1.284,23.65-23.134
		c67.855-62.45,127.994-131.337,172.717-198.419L1882.946,1224.963L1882.946,1224.963z M1829.227,1238.328
		c0.512,0.512-34.698,50.116-55.777,78.132c-25.187,33.414-69.91,89.443-100.752,125.937c-12.848,15.167-23.898,27.76-24.414,28.019
		c-0.773,0.256-1.029-3.598-1.029-9.51c0-31.103-7.966-64.258-21.847-92.528c-5.912-11.823-6.941-14.651-5.651-15.934
		c4.882-4.371,79.674-47.037,126.964-72.48C1778.592,1263,1828.45,1237.813,1829.227,1238.328L1829.227,1238.328z M1504.35,1318.004
		c0.773,0,6.685,3.082,13.368,6.682c16.448,8.995,31.099,19.018,44.206,29.815c0.512,0.512-6.168,5.912-14.906,12.333
		c-24.418,17.477-61.428,45.495-83.014,62.716c-22.623,17.992-23.389,18.505-20.822,14.651c16.965-25.96,25.443-40.61,34.443-59.371
		c7.966-16.704,15.932-36.496,21.586-53.718C1501.266,1323.659,1503.838,1318.004,1504.35,1318.004L1504.35,1318.004z
		 M1590.969,1385.856c1.281-0.254,2.828,2.056,9.764,12.339c14.651,21.842,25.96,51.147,28.791,74.792l0.508,5.143l-35.207,13.623
		c-62.974,24.414-121.057,48.576-160.386,66.564c-11.049,5.143-30.326,14.393-42.918,20.566
		c-12.595,6.422-22.876,11.306-22.876,11.05c0-0.256,7.966-6.168,17.732-13.367c76.854-55.771,143.42-116.944,193.281-178.114
		c5.399-6.427,10.284-12.339,10.794-12.595L1590.969,1385.856L1590.969,1385.856z M1551.131,1395.624
		c1.029,1.028-28.271,34.182-48.319,54.486c-49.605,50.636-98.697,90.219-159.612,128.773c-7.71,4.882-14.648,9.25-15.421,9.766
		c-1.8,1.028,0.512-1.544,27.244-30.588c16.965-18.249,29.814-33.67,44.465-52.687c9.766-12.592,11.567-14.392,25.705-24.42
		C1462.975,1453.709,1550.103,1394.594,1551.131,1395.624z"/>
</g>
<path fill="#231F1F" d="M448.757,1316.93c-2.698,0-5.396,0.257-8.07,0.257c-54.491,2.904-91.242,26.884-112.73,73.715
	c-18.378,42.354-16.371,97.717,0.206,140.33c19.278,41.638,50.428,63.613,102.422,71.913c11.001,1.802,18.378,7.841,39.685,32.719
	l26.217,30.715h47.549l-31.617-31.873c-17.477-17.476-31.613-32.693-31.613-34.03c0-1.336,6.686-4.266,14.779-6.732
	c26.679-8.074,48.835-28.685,64.333-60.273c12.543-25.366,14.344-33.207,16.141-64.768c4.704-93.941-44.825-152.672-127.303-152.001
	L448.757,1316.93L448.757,1316.93z M490.445,1562.59c-23.132,11.204-56.721,13.44-78.647,5.396
	c-22.67-8.326-44.619-31.87-54.491-58.523c-10.974-29.146-9.407-82.913,3.136-107.127c20.176-38.553,46.857-56.286,85.846-56.286
	c57.829,0,90.727,35.419,95.02,101.986c3.393,55.569-15.216,97.257-50.84,114.53L490.445,1562.59z M1311.833,1397.172
	c-19.945,0-35.212,8.073-45.495,23.978l-8.07,12.595V1401h-34.517v196.365h34.495V1534.6c0-57.393,0.716-64.101,8.736-79.807
	c11.053-21.538,30.07-32.278,48.451-27.138l12.336,3.598v-34.03h-15.935V1397.172L1311.833,1397.172z M1109.044,1395.371
	c-6.762,0-13.933,0.901-21.074,2.47c-46.189,12.077-72.225,56.285-70.632,101.778c0,38.092,7.401,57.135,25.781,77.107
	c37.655,30.893,71.708,33.359,117.663,16.784c7.84-3.341,16.373-7.197,16.373-7.197v-30.893l-16.373,8.481
	c-37.191,16.191-65.206,16.191-87.646-2.88c-14.313-14.573-20.612-32.051-23.515-51.993h139.176v-26.477
	c0-53.974-32.487-88.055-79.781-87.181L1109.044,1395.371L1109.044,1395.371z M1052.755,1481.474c0,0,5.141-33.668,24.212-46.88
	c9.178-6.478,19.714-9.612,30.019-9.612c10.334,0,20.64,3.34,29.147,9.844c17.48,13.442,20.408,46.393,20.408,46.393h-103.785v0.255
	L1052.755,1481.474L1052.755,1481.474z M220.599,1446.058c-37.421-22.671-54.025-39.019-51.994-58.295
	c5.808-53.331,71.709-45.955,108.205-25.777l0.26-35.879c0,0-20.177-8.739-49.093-9.202c-44.362-0.668-73.045,13.878-86.486,43.487
	c-19.741,43.693-2.261,76.642,60.916,113.398c35.468,20.637,51.145,38.553,51.145,58.085c0,40.353-48.653,54.438-98.849,29.121
	c-10.33-5.14-19.07-9.433-19.532-9.433c-1.8,11.439-0.872,38.81-0.872,38.81s15.422,6.478,38.552,10.947
	c57.365,11.437,109.568-15.472,114.502-59.165c4.293-41.019-10.54-62.533-66.749-96.126L220.599,1446.058L220.599,1446.058z
	 M1617.327,1394.91c-6.734,0-13.88,0.924-21.334,2.493c-46.133,12.08-72.121,56.288-70.348,101.782
	c0,38.04,7.378,56.904,25.754,76.847c37.656,30.921,71.711,33.413,117.897,16.811c7.813-3.34,16.321-7.142,16.321-7.142v-30.945
	l-16.345,8.53c-37.267,16.141-65.284,16.141-87.644-2.929c-14.395-14.547-20.639-31.82-23.544-51.997h138.946v-26.473
	c0-53.715-32.489-87.824-79.781-86.923L1617.327,1394.91L1617.327,1394.91z M1561.038,1481.012c0,0,5.193-33.619,24.237-47.088
	c9.151-6.501,19.688-9.638,29.994-9.638c10.281,0,20.639,3.341,29.149,9.869c17.477,13.443,20.408,46.624,20.408,46.624h-103.76
	L1561.038,1481.012L1561.038,1481.012z M928.357,1446.495c-37.421-22.618-53.975-39.017-51.97-58.295
	c5.808-53.359,71.711-45.955,108.206-25.777l0.258-35.879c0,0-20.177-8.74-49.093-9.152c-44.362-0.667-73.045,13.88-86.51,43.488
	c-19.714,43.692-2.005,76.644,60.964,113.398c35.419,20.615,51.096,38.297,51.096,57.829c0,40.353-48.628,54.669-98.825,29.12
	c-10.281-5.14-19.018-9.382-19.532-9.382c-1.8,11.436-0.872,38.811-0.872,38.811s15.24,6.246,38.294,10.948
	c57.418,11.463,109.645-15.422,114.555-59.115c4.267-40.815-10.538-62.327-66.57-95.946v-0.047L928.357,1446.495z
	 M1820.142,1396.709c-19.945,0-35.389,8.094-45.492,24.005l-8.073,12.542v-32.692h-34.517v196.312h34.492v-62.762
	c0-57.368,0.692-64.103,8.741-79.781c11.051-21.512,30.068-32.279,48.446-27.115l12.336,3.597v-34.105h-15.933L1820.142,1396.709z
	 M653.86,1445.363v-125.068H619.06v277.019h146.349v-32.717H653.861v-119.234H653.86z M1458.642,1484.352l-28.684,74.639
	l-27.58-75.051l-28.015-83.171h-35.622c23.082,65.438,48.189,132.005,73.507,196.544c10.975,0.256,21.975,0,32.948,0l38.735-97.257
	l39.452-99.262h-34.054c0,0-15.038,39.428-30.714,83.583L1458.642,1484.352L1458.642,1484.352z M734.049,1244.808
	c5.604,0,10.281-1.797,14.136-5.652c3.802-3.806,5.808-8.278,5.808-13.88c0-5.604-2.005-10.282-5.808-13.88
	c-3.856-3.597-8.302-5.399-13.88-5.399c-5.652,0-10.332,1.802-14.136,5.604c-3.854,3.806-5.602,8.484-5.602,13.881
	c0,5.655,1.8,10.33,5.602,13.88c3.6,3.596,8.278,5.396,13.88,5.396L734.049,1244.808L734.049,1244.808z M721.713,1212.939
	c3.34-3.34,7.402-4.884,12.593-4.884c4.884,0,8.946,1.544,12.339,4.884c3.341,3.341,5.14,7.402,5.14,12.337
	c0,4.934-1.799,9.202-5.14,12.542c-3.392,3.339-7.455,4.934-12.339,4.934c-4.96,0-8.996-1.542-12.336-4.934
	c-3.341-3.34-5.14-7.608-5.14-12.542C716.83,1220.34,718.372,1216.281,721.713,1212.939z M730.013,1227.076h2.261
	c1.595,0,3.162,1.541,4.498,4.472l2.701,6.064h4.24l-3.34-6.736c-1.362-2.696-2.698-4.264-4.267-4.704
	c1.979-0.462,3.546-1.13,4.678-2.468c1.128-1.154,1.541-2.724,1.541-4.498c0-2.055-0.642-3.596-2.003-4.728
	c-1.543-1.285-4.011-1.978-7.199-1.978h-7.142v25.111h3.597v-10.538L730.013,1227.076L730.013,1227.076z M730.013,1215.406h3.137
	c2.261,0,3.855,0.462,4.729,1.13c0.849,0.668,1.08,1.544,1.08,3.136c0,2.904-1.802,4.268-5.14,4.268h-3.854v-8.534H730.013
	L730.013,1215.406z M155.16,1224.838c0-8.739-0.256-15.24-0.462-19.07h0.206c0.898,4.521,2.004,7.89,2.904,10.125l33.411,74.639
	h5.604l33.411-75.307c0.902-2.054,1.802-5.14,2.906-9.433h0.256c-0.667,7.455-0.898,13.931-0.898,19.096v65.876h11.435v-97.925
	h-14.341l-30.713,68.11c-1.132,2.698-2.7,6.736-4.704,12.081h-0.465c-0.667-2.648-2.235-6.683-4.471-11.619l-30.022-68.806h-15.24
	v97.924h11v-65.643L155.16,1224.838L155.16,1224.838z M268.995,1225.021h9.872v60.989h-9.872V1225.021z M273.93,1202.658
	c2.058,0,3.805-0.696,5.14-2.055c1.363-1.338,2.264-3.085,2.264-5.14c0-2.005-0.67-3.806-2.237-5.14
	c-1.388-1.363-3.162-2.059-5.192-2.059c-2.003,0-3.802,0.696-5.141,2.059c-1.358,1.334-2.26,3.135-2.26,5.14
	c0,2.237,0.695,3.802,2.26,5.14c1.546,1.359,3.137,2.055,5.141,2.055H273.93L273.93,1202.658z M349.239,1287.348v-10.745
	c-5.399,4.036-11.207,6.042-17.221,6.042c-7.194,0-13.031-2.466-17.298-7.194c-4.24-4.678-6.501-11.184-6.501-19.279
	c0-8.481,2.261-15.218,6.938-20.359c4.498-4.934,10.334-7.402,17.48-7.402c5.834,0,11.434,1.802,16.604,5.401v-11.437
	c-4.703-2.468-10.074-3.599-16.142-3.599c-11.207,0-19.944,3.599-26.472,10.541c-6.478,6.938-9.82,16.371-9.82,27.758
	c0,10.125,2.904,18.634,8.946,25.137c6.296,6.681,14.344,10.074,24.212,10.074C337.595,1292.076,343.84,1290.482,349.239,1287.348
	L349.239,1287.348z M377.484,1254.834c0-8.045,1.799-14.546,5.14-19.022c3.137-4.033,6.939-6.064,11.437-6.064
	c3.805,0,6.502,0.693,8.48,2.261v-11.67c-1.541-0.667-3.777-0.898-6.681-0.898c-4.036,0-7.632,1.358-10.794,3.855
	c-3.341,2.644-6.014,6.682-7.582,11.823h-0.256v-14.318h-11.18v69.91h11.205v-35.879H377.484z M441.816,1292.101
	c10.539,0,19.02-3.393,25.316-10.125c6.27-6.686,9.406-15.679,9.406-26.888c0-11.434-2.877-20.174-8.737-26.679
	c-5.808-6.499-13.88-9.638-24.419-9.638s-19.02,3.137-25.316,9.202c-6.733,6.686-10.281,16.118-10.281,28.224
	c0,10.538,2.879,19.278,8.946,25.78c6.27,6.732,14.572,10.099,25.085,10.099L441.816,1292.101L441.816,1292.101z M425.881,1235.145
	c4.267-4.498,9.872-6.736,16.809-6.736c7.199,0,12.595,2.238,16.605,6.736c4.034,4.704,6.041,11.414,6.041,20.382
	c0,8.531-1.8,15.241-5.605,19.739c-3.802,4.704-9.406,7.195-16.81,7.195c-7.195,0-12.773-2.494-17.04-7.195
	c-4.24-4.729-6.271-11.208-6.271-19.739C419.174,1247.046,421.41,1240.107,425.881,1235.145L425.881,1235.145z M525.607,1286.01
	c4.266-3.802,6.529-8.48,6.529-14.344c0-5.14-1.802-9.406-5.142-12.773c-2.726-2.696-6.938-5.14-13.03-7.608
	c-5.4-2.259-8.74-4.267-10.54-5.835c-1.798-1.798-2.904-4.032-2.904-7.195c0-2.904,1.132-5.14,3.344-6.939
	c2.261-1.797,5.14-2.67,8.996-2.67c6.04,0,11.205,1.592,15.933,4.96v-11.207c-4.523-2.259-9.432-3.339-15.036-3.339
	c-7.195,0-13.261,1.981-17.736,5.806c-4.704,3.807-6.938,8.741-6.938,14.547c0,5.14,1.541,9.408,4.469,12.542
	c2.468,2.674,6.686,5.4,12.543,7.839c5.605,2.469,9.408,4.703,11.437,6.501c2.004,1.802,2.904,4.036,2.904,6.686
	c0,6.526-4.471,9.896-13.21,9.896c-6.734,0-12.772-2.212-18.173-6.682v12.076c4.884,2.933,10.745,4.268,17.221,4.268
	c8.302-0.436,14.803-2.466,19.276-6.502L525.607,1286.01L525.607,1286.01z M578.964,1218.772c-10.54,0-19.02,3.137-25.318,9.202
	c-6.682,6.686-10.281,16.118-10.281,28.224c0,10.538,2.906,19.278,8.945,25.78c6.297,6.732,14.572,10.099,25.111,10.099
	c10.794,0,19.02-3.391,25.316-10.128c6.297-6.681,9.432-15.677,9.432-26.884c0-11.437-2.93-20.175-8.74-26.678
	c-6.062-6.503-14.136-9.639-24.417-9.639L578.964,1218.772L578.964,1218.772z M600.707,1255.528c0,8.531-1.799,15.241-5.603,19.739
	c-3.805,4.704-9.408,7.195-16.811,7.195c-7.199,0-12.774-2.494-17.042-7.195c-4.24-4.729-6.27-11.208-6.27-19.739
	c0-8.996,2.238-15.934,6.736-20.615c4.238-4.472,9.844-6.734,16.809-6.734c6.938,0,12.517,2.26,16.55,6.734
	c3.6,4.934,5.605,11.644,5.605,20.615H600.707L600.707,1255.528z M630.986,1290.508h11.18v-60.527h16.371v-9.408h-16.373v-10.795
	c0-9.816,3.802-14.751,11.669-14.751c2.648,0,5.346,0.667,7.352,1.799v-10.099c-2.005-0.9-4.704-1.105-8.074-1.105
	c-6.039,0-10.973,1.8-15.01,5.603c-4.704,4.472-7.195,10.281-7.195,18.148v11.464H619.08v9.406h11.826v60.299L630.986,1290.508z
	 M676.913,1271.436c0,13.675,6.042,20.64,18.378,20.64c4.473,0,7.839-0.718,10.538-2.312v-9.612
	c-2.055,1.543-4.498,2.264-7.195,2.264c-3.802,0-6.476-0.903-8.045-2.933c-1.594-2.002-2.493-5.397-2.493-10.075v-39.451h17.732
	v-9.408h-17.732v-20.611c-3.856,1.336-7.633,2.468-11.207,3.596v17.014h-12.08v9.408h12.08v41.458L676.913,1271.436z
	 M1879.77,1400.305c-3.803-3.596-8.301-5.396-13.878-5.396c-5.654,0-10.334,1.8-14.137,5.655c-3.803,3.778-5.605,8.48-5.605,13.88
	c0,5.604,1.802,10.282,5.576,13.878c3.806,3.598,8.481,5.4,14.137,5.4c5.576,0,10.281-1.802,14.137-5.605
	c3.778-3.855,5.783-8.301,5.783-13.878c-0.206-5.655-2.236-10.334-6.04-13.931L1879.77,1400.305z M1877.972,1426.781
	c-3.342,3.34-7.403,4.882-12.338,4.882c-4.882,0-8.943-1.542-12.336-4.882c-3.34-3.393-5.141-7.634-5.141-12.595
	c0-4.884,1.542-8.942,4.935-12.336c3.34-3.339,7.378-4.884,12.542-4.884c4.884,0,8.947,1.546,12.338,4.884
	c3.34,3.393,5.139,7.452,5.139,12.336C1883.111,1419.379,1881.569,1423.388,1877.972,1426.781z M1867.895,1415.342
	c2.004-0.462,3.599-1.362,4.704-2.466c1.132-1.158,1.544-2.727,1.544-4.522c0-2.005-0.644-3.599-2.004-4.704
	c-1.542-1.286-4.035-1.98-7.194-1.98h-7.146v25.084h3.599v-10.538h2.234c1.544,0,3.086,1.541,4.472,4.472l2.672,6.04h4.269
	l-3.34-6.736c-1.158-2.93-2.495-4.268-3.854-4.705L1867.895,1415.342L1867.895,1415.342z M1865.428,1413.082h-3.854v-8.48h3.162
	c2.236,0,3.803,0.409,4.704,1.105c0.898,0.667,1.105,1.542,1.105,3.136c0,2.904-1.799,4.242-5.139,4.242L1865.428,1413.082
	L1865.428,1413.082z M1240.124,1217.669h3.136v-25.111h8.299v-3.136h-19.736v3.136h8.304v25.111H1240.124z M1259.143,1198.804
	c0-2.444,0-4.448-0.18-5.577c0.206,1.335,0.669,2.237,0.875,2.904l9.639,21.538h1.542l9.662-21.745
	c0.26-0.667,0.466-1.542,0.901-2.696c-0.206,2.237-0.206,4.031-0.206,5.396v19.02h3.342v-28.222h-4.037l-8.736,19.483
	c-0.206,0.696-0.903,2.055-1.338,3.599h-0.257c-0.18-0.902-0.641-1.8-1.285-3.34l-8.739-19.74h-4.523v28.272h3.16v-18.865
	L1259.143,1198.804L1259.143,1198.804z"/>
</svg>
