<?xml version="1.0" encoding="utf-8"?>
<!-- Generator: Adobe Illustrator 17.0.0, SVG Export Plug-In . SVG Version: 6.00 Build 0)  -->
<!DOCTYPE svg PUBLIC "-//W3C//DTD SVG 1.1//EN" "http://www.w3.org/Graphics/SVG/1.1/DTD/svg11.dtd">
<svg version="1.1" id="Layer_1" xmlns="http://www.w3.org/2000/svg" xmlns:xlink="http://www.w3.org/1999/xlink" x="0px" y="0px"
	 width="2000px" height="2000px" viewBox="0 0 2000 2000" enable-background="new 0 0 2000 2000" xml:space="preserve">
<rect fill="#FFFFFF" width="2000" height="2000"/>
<path fill="#EA1B22" d="M863.968,972.903h131.18l-69.363-111.595l-127.307,201.768h-57.936l154.844-242.369
	c6.731-9.79,17.952-15.707,30.399-15.707c12.035,0,23.257,5.711,29.786,15.3l155.457,242.776h-57.936l-27.336-45.086H892.944
	l-28.972-45.086H863.968z M1465.807,1017.986V807.447h-49.165v231.147c0,6.324,2.447,12.447,7.138,17.138
	c4.692,4.692,11.016,7.344,17.952,7.344h224.211l28.972-45.086h-229.112L1465.807,1017.986z M652.406,980.243
	c47.742,0,86.505-38.557,86.505-86.295c0-47.742-38.762-86.505-86.505-86.505H437.315v255.637h49.15V852.537h162.68
	c22.85,0,41.209,18.569,41.209,41.418c0,22.846-18.359,41.411-41.209,41.411l-138.605-0.202l146.763,127.915h71.406l-98.742-82.829
	h22.442L652.406,980.243z M134.769,1063.076C64.2,1063.08,6.931,1005.954,6.931,935.366c0-70.592,57.269-127.915,127.838-127.915
	h148.582c70.584,0,127.811,57.323,127.811,127.915c0,70.588-57.227,127.71-127.815,127.71H134.769L134.769,1063.076z
	 M280.047,1017.99c45.718,0,82.748-36.928,82.748-82.627c0-45.695-37.029-82.825-82.748-82.825h-141.99
	c-45.703,0-82.751,37.13-82.751,82.829c0,45.695,37.049,82.624,82.748,82.624h141.99H280.047z M1213.648,1063.076
	c-70.584,0-127.915-57.122-127.915-127.71c0-70.592,57.331-127.915,127.915-127.915h176.476l-28.77,45.086h-144.441
	c-45.699,0-82.829,37.13-82.829,82.829c0,45.695,37.13,82.624,82.829,82.624h177.286l-28.972,45.086H1213.648L1213.648,1063.076z
	 M1814.878,1017.99c-37.743,0-69.774-25.296-79.564-60.185h210.132l28.968-45.086h-239.1c9.79-34.683,41.822-60.181,79.564-60.181
	h144.239l29.166-45.094h-176.674c-70.588,0-127.915,57.327-127.915,127.915c0,70.592,57.327,127.714,127.915,127.714h151.583
	l28.968-45.083h-177.286H1814.878z"/>
</svg>
